<svg version="1.1" id="Sov_Light" xmlns="http://www.w3.org/2000/svg" x="0" y="0" viewBox="0 0 512 512" style="enable-background:new 0 0 512 512" xml:space="preserve"><style>.st0{fill:#888}</style><circle class="st0" cx="256" cy="256" r="250"/><path d="M256.08 320.94c-32.93 0-60.05-26.88-60.49-59.99-.22-16.11 6.25-32 17.73-43.61 11.49-11.62 26.67-18.01 42.76-18.01h.13c16.09.03 31.27 6.46 42.73 18.1 11.42 11.6 17.85 27.46 17.63 43.52-.44 33-27.52 59.91-60.36 59.99h-.13zm.01-100.18c-10.33 0-20.1 4.13-27.53 11.65-7.47 7.56-11.68 17.86-11.54 28.26.29 21.44 17.8 38.84 39.07 38.84h.09c21.21-.05 38.7-17.47 38.98-38.84.14-10.37-4.04-20.65-11.48-28.2-7.41-7.53-17.18-11.68-27.5-11.7-.04-.01-.07-.01-.09-.01zM115.17 340.53c-14.96 0-29.3-5.67-40.63-16.11-12.18-11.23-19.25-26.48-19.9-42.95-.23-5.91 4.37-10.89 10.28-11.13 5.9-.2 10.89 4.37 11.13 10.28.42 10.74 5.04 20.7 13.01 28.04 7.75 7.14 17.6 10.82 27.72 10.4 17.95-.76 32.91-14.19 36.55-31.71L60.94 243.2a10.691 10.691 0 0 1-6.09-9.62c-.14-32.73 26.11-60.05 58.5-60.9 16.12-.44 31.48 5.67 43.26 17.15 11.91 11.61 18.45 27.1 18.43 43.61-.01 5.91-4.8 10.7-10.71 10.7h-.01c-5.92-.01-10.71-4.81-10.7-10.73.01-10.67-4.23-20.7-11.96-28.24-7.6-7.41-17.44-11.31-27.73-11.07-18.68.49-34.18 14.73-37.13 32.92l92.69 44.31c3.85 1.84 6.24 5.79 6.09 10.06-1.17 31.81-26.59 57.76-57.87 59.09-.86.04-1.7.05-2.54.05zm271.68-13.26c-4.15 0-7.92-2.39-9.69-6.15L321.34 202.7c-2.52-5.35-.23-11.74 5.12-14.26 5.35-2.52 11.74-.23 14.26 5.12l46.11 97.81 45.87-97.79c2.51-5.36 8.9-7.66 14.25-5.15 5.36 2.51 7.66 8.89 5.15 14.25L396.55 321.1a10.695 10.695 0 0 1-9.7 6.17c.01 0 0 0 0 0z" style="fill:#fff" id="SoV_00000047019489084438034070000014570374632345744292_"/><g id="Color_Circles"><circle cx="164.37" cy="233.42" r="9.41" style="fill:#006d82"/><circle cx="65.76" cy="233.42" r="9.41" style="fill:#e95021"/><circle cx="65.34" cy="281.34" r="9.41" style="fill:#a2195b"/><circle cx="164.37" cy="281.64" r="9.41" style="fill:#c7ce42"/><circle cx="206.3" cy="260.65" r="9.41" style="fill:#f2ba07"/><circle cx="305.87" cy="260.65" r="9.41" style="fill:#009d3d"/><circle cx="331.03" cy="198.14" r="9.41" style="fill:#0083cb"/><circle cx="442.4" cy="198.14" r="9.41" style="fill:#e30614"/><circle cx="387.01" cy="316.56" r="9.41" style="fill:#84bc3c"/><circle cx="256.53" cy="310.22" r="9.41" style="fill:#d12b58"/><circle class="st0" cx="256.15" cy="210.04" r="9.41"/></g></svg>