<?xml version="1.0" encoding="utf-8"?>
<!-- Generator: Adobe Illustrator 26.2.1, SVG Export Plug-In . SVG Version: 6.00 Build 0)  -->
<svg version="1.1" id="Layer_1" xmlns="http://www.w3.org/2000/svg" xmlns:xlink="http://www.w3.org/1999/xlink" x="0px" y="0px"
	 viewBox="0 0 309.4 109.4" style="enable-background:new 0 0 309.4 109.4;" xml:space="preserve">
<style type="text/css">
	.st0{fill:url(#SVGID_1_);}
	.st1{fill:url(#SVGID_00000021092889367873757150000003325450607665988003_);stroke:#00ACD6;stroke-width:0.1194;}
	.st2{fill:url(#SVGID_00000068665413612452505600000003372825241663102139_);}
	.st3{fill:url(#SVGID_00000108290701405477434850000016613954731647578503_);stroke:#8581BC;stroke-width:0.1194;}
	.st4{fill:#141414;}
	.st5{fill:#333333;}
	.st6{fill:url(#SVGID_00000114075604951055390200000010934983310904701347_);}
	.st7{fill:url(#SVGID_00000100344704065135178410000000014823879327694257_);stroke:#EC6E4F;stroke-width:0.1194;}
	.st8{fill:url(#SVGID_00000091703034598400817770000010932920602249632703_);}
	.st9{fill:url(#SVGID_00000103948118579930244540000011033269713859864733_);stroke:#BBCF33;stroke-width:0.1194;}
	.st10{fill:url(#SVGID_00000072261899649953910040000001037137130428528770_);}
	.st11{fill:url(#SVGID_00000007392410704901143430000011866159665304057523_);stroke:#F19065;stroke-width:0.1194;}
	.st12{fill:url(#SVGID_00000080919174782618799030000017978083379982426547_);}
	.st13{fill:url(#SVGID_00000064313793214842810170000012848887827656658348_);stroke:#FCE900;stroke-width:0.1194;}
</style>
<g>
	<g>
		
			<linearGradient id="SVGID_1_" gradientUnits="userSpaceOnUse" x1="201.35" y1="-176.1" x2="201.35" y2="-207.6092" gradientTransform="matrix(1 0 0 -1 0 -176)">
			<stop  offset="0.4615" style="stop-color:#009EE2"/>
			<stop  offset="0.4909" style="stop-color:#0295D8"/>
			<stop  offset="0.644" style="stop-color:#0B68A8"/>
			<stop  offset="0.7789" style="stop-color:#124885"/>
			<stop  offset="0.8894" style="stop-color:#163470"/>
			<stop  offset="0.9615" style="stop-color:#182D68"/>
		</linearGradient>
		<path class="st0" d="M210.3,0.1c3.9,0,7.1,3.1,7.1,7.1v17.4c0,3.9-3.2,7.1-7.1,7.1h-17.9c-3.9,0-7.1-3.1-7.1-7.1V7.2
			c0-3.9,3.2-7.1,7.1-7.1C192.4,0.1,210.3,0.1,210.3,0.1z"/>
		
			<linearGradient id="SVGID_00000127725700552685090610000017050817554754176160_" gradientUnits="userSpaceOnUse" x1="201.45" y1="-204.9" x2="201.45" y2="-179.1465" gradientTransform="matrix(1 0 0 -1 0 -176)">
			<stop  offset="0.2692" style="stop-color:#35A8E0"/>
			<stop  offset="0.4429" style="stop-color:#32A3DC"/>
			<stop  offset="0.6607" style="stop-color:#2993D0"/>
			<stop  offset="0.9011" style="stop-color:#1A7ABD"/>
			<stop  offset="1" style="stop-color:#136DB4"/>
		</linearGradient>
		<path style="fill:url(#SVGID_00000127725700552685090610000017050817554754176160_);stroke:#00ACD6;stroke-width:0.1194;" d="
			M214.3,25.8c0,1.7-1.4,3.1-3.1,3.1h-19.5c-1.7,0-3.1-1.4-3.1-3.1V6.3c0-1.7,1.4-3.1,3.1-3.1h19.5c1.7,0,3.1,1.4,3.1,3.1V25.8z"/>
	</g>
	<g>
		
			<linearGradient id="SVGID_00000091015792467304247280000014459408108600990601_" gradientUnits="userSpaceOnUse" x1="160.35" y1="-253.9" x2="160.35" y2="-285.4105" gradientTransform="matrix(1 0 0 -1 0 -176)">
			<stop  offset="0" style="stop-color:#8477B4"/>
			<stop  offset="0.5" style="stop-color:#6A5BA3"/>
			<stop  offset="1" style="stop-color:#4A348A"/>
		</linearGradient>
		<path style="fill:url(#SVGID_00000091015792467304247280000014459408108600990601_);" d="M169.3,77.9c3.9,0,7.1,3.1,7.1,7.1v17.4
			c0,3.9-3.1,7.1-7.1,7.1h-17.9c-3.9,0-7.1-3.2-7.1-7.1V85c0-3.9,3.1-7.1,7.1-7.1H169.3z"/>
		
			<linearGradient id="SVGID_00000039129545952677257710000013788984969986929566_" gradientUnits="userSpaceOnUse" x1="160.35" y1="-282.5" x2="160.35" y2="-256.7437" gradientTransform="matrix(1 0 0 -1 0 -176)">
			<stop  offset="0" style="stop-color:#8477B4"/>
			<stop  offset="0.5" style="stop-color:#6A5BA3"/>
			<stop  offset="1" style="stop-color:#4A348A"/>
		</linearGradient>
		<path style="fill:url(#SVGID_00000039129545952677257710000013788984969986929566_);stroke:#8581BC;stroke-width:0.1194;" d="
			M173.2,103.4c0,1.7-1.4,3.1-3.1,3.1h-19.5c-1.7,0-3.1-1.4-3.1-3.1V83.9c0-1.7,1.4-3.1,3.1-3.1h19.5c1.7,0,3.1,1.4,3.1,3.1V103.4z"
			/>
	</g>
	<g>
		<path class="st4" d="M9.5,13.9H8v-0.4c0-1-0.7-1-2.3-1c-1.8,0-2.7,0-2.7,1.2c0,1.8,0.5,1.6,2,1.7c2.5,0.1,4.8-0.2,4.8,3
			c0,2.8-1.9,2.9-4.1,2.9c-2.1,0-4.4-0.1-4.4-2.3v-1h1.5v0.8c0,0.9,0.6,1.1,2.8,1.1c1,0,2.6,0.2,2.6-1.5c0-1.8-0.8-1.5-2.6-1.6
			c-2.1-0.1-4.3,0.1-4.3-2.7s1.6-2.9,4.3-2.9c1.7,0,3.8,0.1,3.8,2.3L9.5,13.9L9.5,13.9z"/>
		<path class="st4" d="M17,12.5h-3.8v6.2c0,1.1,0.3,1.3,1.4,1.3c1.4,0,1.4-0.7,1.4-1.7v-0.7h1.4v0.7c0,1.9-0.8,2.9-2.8,2.9
			c-2.3,0-2.8-0.7-2.8-3v-5.8h-1.3v-1.2h1.3V9h1.5v2.4H17V12.5z"/>
		<path class="st4" d="M26.9,18.2v0.4c0,2.6-2,2.7-4.2,2.7c-3.8,0-4.4-1.3-4.4-5c0-4.1,0.9-5,4.4-5c3.2,0,4.2,0.7,4.2,4.4v1h-7.1
			c0,3.1,0.2,3.5,2.9,3.5c2,0,2.7-0.1,2.7-1.5v-0.4h1.5C26.9,18.3,26.9,18.2,26.9,18.2z M25.4,15.4c-0.1-2.8-0.4-3-2.7-3
			c-2.7,0-2.8,0.7-2.9,3H25.4z"/>
		<path class="st4" d="M30.6,12.9L30.6,12.9c0.6-1.3,2.1-1.6,3.3-1.6s2.7,0.3,3,1.6c0.7-1.3,2.2-1.6,3.5-1.6c2.5,0,3.4,1,3.4,3.5
			v6.5h-1.5V15c0-1.7-0.2-2.4-2.1-2.4c-2.1,0-3,0.6-3,2.7v6h-1.5v-6.6c-0.1-1.3-0.1-2.1-2.2-2.1c-1.9,0-3,0.8-3,2.8v5.9H29v-9.8h1.5
			L30.6,12.9L30.6,12.9z"/>
		<path class="st4" d="M59.5,21.1v-1l0,0c-0.6,1.1-2,1.2-3.2,1.2c-2.2,0-3.7-0.4-3.7-3c0-2.7,1.4-3.1,3.8-3.1c1,0,2.9,0.1,3.1,1h0.1
			v-1.8c0-1.8-1-2-2.6-2c-1.2,0-2.6,0-2.6,1.3V14h-1.5v-0.2c0-2.5,1.7-2.7,3.9-2.7c2.5,0,4.3,0.2,4.3,3.2V21h-1.6V21.1z M59.4,18.2
			c0-1.8-1.1-1.8-3-1.8c-1.8,0-2.5,0.1-2.5,1.7c0,1.9,0.8,2,2.5,2C57.9,20.1,59.4,20,59.4,18.2z"/>
		<path class="st4" d="M67.9,11.3v1.2h-2.6v8.6h-1.5v-8.6h-1.5v-1.2h1.5v-1.2C63.8,7.8,64.6,7,67,7c0.3,0,0.6,0,0.9,0v1.2
			c-0.3,0-0.6,0-0.9,0c-1.5,0-1.7,0.5-1.7,1.8v1.3H67.9z"/>
		<path class="st4" d="M79.6,11.2c3.6,0,4.4,0.9,4.4,5s-0.7,5-4.4,5c-3.6,0-4.4-0.9-4.4-5S75.9,11.2,79.6,11.2z M79.6,20.1
			c2.6,0,2.8-0.4,2.8-3.8s-0.2-3.8-2.8-3.8c-2.6,0-2.8,0.4-2.8,3.8C76.8,19.7,77,20.1,79.6,20.1z"/>
		<path class="st4" d="M87.6,12.5L87.6,12.5c0.6-1.1,2-1.3,3.2-1.3c3.6,0,3.8,2.1,3.8,5c0,3.9-1,5-3.8,5c-1.1,0-2.6-0.1-3.2-1.3l0,0
			v5.4h-1.5v-14h1.5V12.5z M87.6,16.3c0,2.3,0.1,3.8,2.8,3.8c2.3,0,2.7-0.6,2.7-3.8c0-2.9-0.2-3.8-2.7-3.8
			C87.6,12.4,87.6,13.7,87.6,16.3z"/>
	</g>
	<path class="st5" d="M35,30.6h6.5l-17.9,39H18l-18-39h6.5l14.2,32.6L35,30.6z"/>
	<path class="st5" d="M54.2,29.4V35h-5.6v-5.6H54.2z M48.5,39.3h5.6v30.2h-5.6V39.3z"/>
	<path class="st5" d="M65.1,29.4h5.6v33.4c0,0.6,0.5,1.1,1.1,1.1h5.6v5.6h-5.6c-3.8,0-6.8-3-6.8-6.8V46.1V29.4H65.1z"/>
	<path class="st4" d="M232,39.3v5.6h-16.9c-0.6,0-1.2,0.5-1.2,1.1v23.5h-5.6v-6.8V46.1c0-3.8,3-6.8,6.8-6.8H232z"/>
	<path class="st4" d="M268.3,29.4v40.2h-24c-3.7,0-6.8-3-6.8-6.8V46.1c0-3.8,3-6.8,6.8-6.8h18.4v-9.9H268.3z M261.5,63.9
		c0.6,0,1.2-0.5,1.2-1.1V46.1c0-0.6-0.5-1.1-1.2-1.1h-17.2c-0.6,0-1.1,0.5-1.1,1.1v16.7c0,0.6,0.5,1.1,1.1,1.1
		C244.3,63.9,261.5,63.9,261.5,63.9z"/>
	<path class="st4" d="M309.4,46.1v11.2h-25.1v5.5c0,0.6,0.5,1.1,1.1,1.1h24v5.6h-24c-3.8,0-6.8-3-6.8-6.8V46.1c0-3.8,3-6.8,6.8-6.8
		h17.2C306.4,39.3,309.4,42.3,309.4,46.1z M303.7,51.6v-5.5c0-0.6-0.5-1.1-1.1-1.1h-17.2c-0.6,0-1.1,0.5-1.1,1.1v5.5H303.7z"/>
	<path class="st5" d="M118.1,39.3l-16.7,30.2h-5.6L79.1,39.3h6.5l13,23.9l13-23.9C111.6,39.3,118.1,39.3,118.1,39.3z"/>
	<g>
		
			<linearGradient id="SVGID_00000106145897179274829030000016734849472519899269_" gradientUnits="userSpaceOnUse" x1="119.05" y1="-176" x2="119.05" y2="-207.5092" gradientTransform="matrix(1 0 0 -1 0 -176)">
			<stop  offset="0.5" style="stop-color:#E31F16"/>
			<stop  offset="0.7692" style="stop-color:#B4110E"/>
			<stop  offset="0.8284" style="stop-color:#B0110E"/>
			<stop  offset="0.8905" style="stop-color:#A3110E"/>
			<stop  offset="0.9536" style="stop-color:#8E110D"/>
			<stop  offset="1" style="stop-color:#7A110D"/>
		</linearGradient>
		<path style="fill:url(#SVGID_00000106145897179274829030000016734849472519899269_);" d="M128,0c3.9,0,7.1,3.1,7.1,7.1v17.4
			c0,3.9-3.2,7.1-7.1,7.1h-17.9c-3.9,0-7.1-3.1-7.1-7.1V7.1c0-3.9,3.1-7.1,7.1-7.1H128z"/>
		
			<linearGradient id="SVGID_00000181787679757916636310000007931009253650367415_" gradientUnits="userSpaceOnUse" x1="119.25" y1="-204.8" x2="119.25" y2="-179.0451" gradientTransform="matrix(1 0 0 -1 0 -176)">
			<stop  offset="0.522" style="stop-color:#E31F16"/>
			<stop  offset="0.7802" style="stop-color:#B4110E"/>
			<stop  offset="0.8366" style="stop-color:#B0110E"/>
			<stop  offset="0.8957" style="stop-color:#A3110E"/>
			<stop  offset="0.9558" style="stop-color:#8E110D"/>
			<stop  offset="1" style="stop-color:#7A110D"/>
		</linearGradient>
		<path style="fill:url(#SVGID_00000181787679757916636310000007931009253650367415_);stroke:#EC6E4F;stroke-width:0.1194;" d="
			M132.1,25.7c0,1.7-1.4,3.1-3.1,3.1h-19.5c-1.7,0-3.1-1.4-3.1-3.1V6.2c0-1.7,1.4-3.1,3.1-3.1H129c1.7,0,3.1,1.4,3.1,3.1V25.7z"/>
	</g>
	<g>
		
			<linearGradient id="SVGID_00000116955809251429073560000005557903148489829800_" gradientUnits="userSpaceOnUse" x1="139.75" y1="-214.7" x2="139.75" y2="-246.2117" gradientTransform="matrix(1 0 0 -1 0 -176)">
			<stop  offset="0" style="stop-color:#93C022"/>
			<stop  offset="0.127" style="stop-color:#8CBC23"/>
			<stop  offset="0.3163" style="stop-color:#77B124"/>
			<stop  offset="0.5445" style="stop-color:#569F27"/>
			<stop  offset="0.8006" style="stop-color:#29872A"/>
			<stop  offset="1" style="stop-color:#00712D"/>
		</linearGradient>
		<path style="fill:url(#SVGID_00000116955809251429073560000005557903148489829800_);" d="M148.7,38.7c3.9,0,7.1,3.1,7.1,7.1v17.4
			c0,3.9-3.2,7.1-7.1,7.1h-17.9c-3.9,0-7.1-3.2-7.1-7.1V45.8c0-3.9,3.2-7.1,7.1-7.1H148.7z"/>
		
			<linearGradient id="SVGID_00000076566290463193110020000003217825542062399908_" gradientUnits="userSpaceOnUse" x1="139.75" y1="-243.3281" x2="139.75" y2="-217.5663" gradientTransform="matrix(1 0 0 -1 0 -176)">
			<stop  offset="0" style="stop-color:#93C022"/>
			<stop  offset="0.358" style="stop-color:#91BF22"/>
			<stop  offset="0.5146" style="stop-color:#8ABB23"/>
			<stop  offset="0.632" style="stop-color:#7DB424"/>
			<stop  offset="0.7299" style="stop-color:#6BAB25"/>
			<stop  offset="0.8155" style="stop-color:#549E27"/>
			<stop  offset="0.8926" style="stop-color:#378F29"/>
			<stop  offset="0.9618" style="stop-color:#167D2B"/>
			<stop  offset="1" style="stop-color:#00712D"/>
		</linearGradient>
		<path style="fill:url(#SVGID_00000076566290463193110020000003217825542062399908_);stroke:#BBCF33;stroke-width:0.1194;" d="
			M152.6,64.2c0,1.7-1.4,3.1-3.1,3.1H130c-1.7,0-3.1-1.4-3.1-3.1V44.7c0-1.7,1.4-3.1,3.1-3.1h19.5c1.7,0,3.1,1.4,3.1,3.1V64.2z"/>
	</g>
	<g>
		
			<linearGradient id="SVGID_00000137848753822241857770000008468869793451257227_" gradientUnits="userSpaceOnUse" x1="181.25" y1="-214.6" x2="181.25" y2="-246.1117" gradientTransform="matrix(1 0 0 -1 0 -176)">
			<stop  offset="0.5824" style="stop-color:#E85019"/>
			<stop  offset="0.6171" style="stop-color:#E04C19"/>
			<stop  offset="0.729" style="stop-color:#CB431B"/>
			<stop  offset="0.8022" style="stop-color:#C33F1B"/>
			<stop  offset="0.8535" style="stop-color:#C03D1F"/>
			<stop  offset="0.9072" style="stop-color:#B5352C"/>
			<stop  offset="0.9231" style="stop-color:#B13231"/>
		</linearGradient>
		<path style="fill:url(#SVGID_00000137848753822241857770000008468869793451257227_);" d="M190.2,38.6c3.9,0,7.1,3.1,7.1,7.1v17.4
			c0,3.9-3.2,7.1-7.1,7.1h-17.9c-3.9,0-7.1-3.2-7.1-7.1V45.7c0-3.9,3.1-7.1,7.1-7.1C172.3,38.6,190.2,38.6,190.2,38.6z"/>
		
			<linearGradient id="SVGID_00000150072373464317076190000013465472312776026514_" gradientUnits="userSpaceOnUse" x1="181.25" y1="-243.264" x2="181.25" y2="-217.5081" gradientTransform="matrix(1 0 0 -1 0 -176)">
			<stop  offset="0.5824" style="stop-color:#E85019"/>
			<stop  offset="0.6232" style="stop-color:#E04C19"/>
			<stop  offset="0.7546" style="stop-color:#CB431B"/>
			<stop  offset="0.8407" style="stop-color:#C33F1B"/>
			<stop  offset="0.8943" style="stop-color:#C03D1F"/>
			<stop  offset="0.9504" style="stop-color:#B5352C"/>
			<stop  offset="0.967" style="stop-color:#B13231"/>
		</linearGradient>
		<path style="fill:url(#SVGID_00000150072373464317076190000013465472312776026514_);stroke:#F19065;stroke-width:0.1194;" d="
			M194.1,64.1c0,1.7-1.4,3.1-3.1,3.1h-19.5c-1.7,0-3.1-1.4-3.1-3.1V44.6c0-1.7,1.4-3.1,3.1-3.1H191c1.7,0,3.1,1.4,3.1,3.1V64.1z"/>
	</g>
	<g>
		
			<linearGradient id="SVGID_00000128480625937528072830000011029156057746669752_" gradientUnits="userSpaceOnUse" x1="160.25" y1="-176" x2="160.25" y2="-207.5121" gradientTransform="matrix(1 0 0 -1 0 -176)">
			<stop  offset="2.747250e-02" style="stop-color:#FFEC00"/>
			<stop  offset="0.5275" style="stop-color:#F8B12D"/>
			<stop  offset="0.6044" style="stop-color:#E69F25"/>
			<stop  offset="0.772" style="stop-color:#C37D14"/>
			<stop  offset="0.9099" style="stop-color:#AE680B"/>
			<stop  offset="1" style="stop-color:#A66007"/>
		</linearGradient>
		<path style="fill:url(#SVGID_00000128480625937528072830000011029156057746669752_);" d="M169.2,0c3.9,0,7.1,3.1,7.1,7.1v17.4
			c0,3.9-3.1,7.1-7.1,7.1h-17.9c-3.9,0-7.1-3.2-7.1-7.1V7.1c0-3.9,3.2-7.1,7.1-7.1H169.2z"/>
		
			<linearGradient id="SVGID_00000144301191127045857250000016483941699802326448_" gradientUnits="userSpaceOnUse" x1="160.25" y1="-204.6357" x2="160.25" y2="-178.8764" gradientTransform="matrix(1 0 0 -1 0 -176)">
			<stop  offset="0.5989" style="stop-color:#FFD400"/>
			<stop  offset="0.7329" style="stop-color:#EEBF00"/>
			<stop  offset="1" style="stop-color:#C48A00"/>
		</linearGradient>
		<path style="fill:url(#SVGID_00000144301191127045857250000016483941699802326448_);stroke:#FCE900;stroke-width:0.1194;" d="
			M173.1,25.5c0,1.7-1.4,3.1-3.1,3.1h-19.5c-1.7,0-3.1-1.4-3.1-3.1V6c0-1.7,1.4-3.1,3.1-3.1H170c1.7,0,3.1,1.4,3.1,3.1V25.5z"/>
	</g>
</g>
</svg>
