<?xml version="1.0" encoding="utf-8"?>
<!-- Generator: Adobe Illustrator 26.2.1, SVG Export Plug-In . SVG Version: 6.00 Build 0)  -->
<svg version="1.1" id="Layer_1" xmlns="http://www.w3.org/2000/svg" xmlns:xlink="http://www.w3.org/1999/xlink" x="0px" y="0px"
	 viewBox="0 0 255 110" style="enable-background:new 0 0 255 110;" xml:space="preserve">
<style type="text/css">
	.st0{fill:#141414;}
</style>
<g id="Laag_1">
</g>
<g>
	<g id="Layer_1_00000041257387009588008480000014504314951925394102_">
		<g>
			<g>
				<g>
					<path class="st0" d="M87.4,54.4h-4.3l-7.2-20.8h3.9l5.4,15.9l5.4-15.9h3.9L87.4,54.4z"/>
					<path class="st0" d="M100.7,31.4V54H97V31.8l3.2-0.4H100.7z"/>
					<path class="st0" d="M117,54.4c-1.2,0-2.5-0.4-3.7-1.7c-0.6,0.5-1.2,0.9-1.9,1.2c-0.7,0.4-1.4,0.5-2.5,0.5s-2.5-0.2-3.6-0.9
						s-1.9-2-1.9-4.1c0-1.4,0.4-2.6,1.2-3.3c0.8-0.7,2.2-1.2,4.5-1.2c0.8,0,1.9,0,3.3,0.1v-0.8c0-1.1-0.4-1.9-0.9-2.4
						c-0.6-0.5-1.3-0.7-2.2-0.7c-1.4,0-3.1,0.5-4.4,1.1l-0.8-3.2c1.7-0.8,3.9-1.4,5.9-1.4c1.7,0,3.1,0.4,4.3,1.2
						c1.1,0.8,1.8,2.1,1.8,4.1v6c0,0.7,0.2,1.3,0.7,1.7s1.1,0.6,1.8,0.7L117,54.4z M112.7,47.5c-1.7,0-3.1,0-3.9,0.2
						c-0.9,0.2-1.4,0.7-1.4,1.7c0,1.3,0.9,2,2.2,2c0.5,0,1.2-0.1,1.9-0.5s1.2-1.2,1.2-2.4C112.7,48.5,112.7,47.5,112.7,47.5z"/>
					<path class="st0" d="M133.2,54.4c-1.2,0-2.5-0.4-3.7-1.7c-0.6,0.5-1.2,0.9-1.9,1.2c-0.7,0.4-1.4,0.5-2.5,0.5s-2.5-0.2-3.6-0.9
						s-1.9-2-1.9-4.1c0-1.4,0.4-2.6,1.2-3.3s2.2-1.2,4.5-1.2c0.8,0,1.9,0,3.3,0.1v-0.8c0-1.1-0.4-1.9-0.9-2.4
						c-0.5-0.5-1.3-0.7-2.2-0.7c-1.4,0-3.1,0.5-4.4,1.1l-0.8-3.2c1.7-0.8,3.9-1.4,5.9-1.4c1.7,0,3.1,0.4,4.3,1.2
						c1.1,0.8,1.8,2.1,1.8,4.1v6c0,0.7,0.2,1.3,0.7,1.7s1.1,0.6,1.8,0.7L133.2,54.4z M128.8,47.5c-1.7,0-3.1,0-3.9,0.2
						c-0.9,0.2-1.4,0.7-1.4,1.7c0,1.3,0.9,2,2.2,2c0.5,0,1.2-0.1,1.9-0.5c0.7-0.4,1.2-1.2,1.2-2.4L128.8,47.5L128.8,47.5z"/>
					<path class="st0" d="M140.1,37.9l0.4,1.3c1.5-0.9,3.3-1.5,5.2-1.5c1.5,0,3.1,0.5,4.1,1.3c1.1,0.9,1.8,2.4,1.8,4.4v10.8h-3.7
						v-9.7c0-1.2-0.5-2-1.1-2.6c-0.7-0.5-1.5-0.7-2.6-0.7c-1.3,0-2.5,0.4-3.6,0.9v12h-3.7V37.9H140.1z"/>
					<path class="st0" d="M166.2,54l-0.7-1.2c-1.3,0.9-2.6,1.5-4.4,1.5c-2.4,0-4-0.9-5.2-2.4c-1.2-1.4-1.7-3.3-1.7-5.3
						c0-3.1,0.9-5.3,2.5-6.9c1.5-1.5,3.7-2.2,6.2-2.2c0.7,0,1.5,0,2.4,0.1v-5.9l3.1-0.4h0.6v22.6h-2.8L166.2,54L166.2,54z
						 M165.4,41.4c-0.9-0.2-1.9-0.4-2.6-0.4c-1.4,0-2.6,0.4-3.3,1.3c-0.8,0.8-1.3,2.1-1.3,3.8c0,1.2,0.4,2.5,0.9,3.3
						c0.7,0.9,1.7,1.5,3,1.5c1.1,0,2.4-0.4,3.3-0.9L165.4,41.4L165.4,41.4z"/>
					<path class="st0" d="M184.9,49.9v3.6c-1.4,0.7-3.2,0.9-4.6,0.9c-2.2,0-4.4-0.7-5.8-2.1c-1.5-1.4-2.5-3.6-2.5-6.3
						s0.9-4.9,2.2-6.3c1.3-1.4,3.2-2.1,5-2.1c0.5,0,1.4,0.1,2.4,0.4c0.9,0.4,2,0.9,2.7,2c0.8,1.1,1.3,2.7,1.3,5v2.4h-9.8
						c0.2,1.3,0.9,2.2,1.9,2.7c0.8,0.6,1.9,0.8,3,0.8c1.4,0,2.8-0.4,4-1.1L184.9,49.9L184.9,49.9z M182.4,44.5
						c-0.1-1.2-0.5-2-1.1-2.6s-1.3-0.8-2-0.8s-1.5,0.2-2.1,0.8s-1.1,1.4-1.3,2.6H182.4z"/>
					<path class="st0" d="M198.3,42c-0.9-0.6-1.8-0.8-2.7-0.8c-1.2,0-2.2,0.5-3.3,1.2v11.8h-3.7V37.9h3.1l0.4,1.3
						c1.1-0.9,2.5-1.7,4.1-1.7c0.5,0,1.1,0,1.7,0.1c0.6,0.1,1.2,0.2,1.5,0.5L198.3,42z"/>
					<path class="st0" d="M213.3,49.9v3.6c-1.4,0.7-3.2,0.9-4.6,0.9c-2.2,0-4.4-0.7-5.8-2.1c-1.5-1.4-2.5-3.6-2.5-6.3
						s0.9-4.9,2.2-6.3c1.3-1.4,3.2-2.1,5-2.1c0.5,0,1.4,0.1,2.4,0.4c0.9,0.4,2,0.9,2.7,2c0.8,1.1,1.3,2.7,1.3,5v2.4h-9.8
						c0.2,1.3,0.9,2.2,1.9,2.7c0.8,0.6,1.9,0.8,3,0.8c1.4,0,2.8-0.4,4-1.1L213.3,49.9L213.3,49.9z M210.8,44.5
						c-0.1-1.2-0.5-2-1.1-2.6s-1.3-0.8-2-0.8s-1.5,0.2-2.1,0.8s-1.1,1.4-1.3,2.6H210.8z"/>
					<path class="st0" d="M220.2,37.9l0.4,1.3c1.5-0.9,3.3-1.5,5.2-1.5c1.5,0,3.1,0.5,4.1,1.3c1.1,0.9,1.8,2.4,1.8,4.4v10.8H228
						v-9.7c0-1.2-0.5-2-1.1-2.6c-0.7-0.5-1.5-0.7-2.6-0.7c-1.3,0-2.5,0.4-3.6,0.9v12H217V37.9H220.2z"/>
					<path class="st0" d="M81.5,64c0-0.5,0.4-0.9,0.9-0.9s0.9,0.4,0.9,0.9s-0.5,0.9-0.9,0.9C82,64.8,81.5,64.5,81.5,64z M83.2,66.4
						v9h-1.3v-9H83.2z"/>
					<path class="st0" d="M85.5,73.8c0.6,0.2,1.4,0.5,2.1,0.5c0.9,0,2.2-0.5,2.2-1.4c0-0.5-0.2-0.8-0.7-1.1
						c-0.6-0.4-1.4-0.6-2.2-1.1c-0.9-0.5-1.4-1.2-1.4-2.1c0-1.8,1.4-2.4,3.1-2.4c0.7,0,1.3,0.1,1.8,0.2v1.2l0,0
						c-0.5-0.1-1.3-0.2-2-0.2c-0.8,0-1.5,0.2-1.5,1.1c0,0.5,0.2,0.8,0.7,1.1c0.6,0.4,1.7,0.7,2.5,1.2c0.9,0.5,1.2,1.1,1.2,2
						s-0.5,1.7-1.2,2.1c-0.7,0.5-1.7,0.7-2.5,0.7c-0.7,0-1.4-0.1-2-0.4L85.5,73.8L85.5,73.8z"/>
					<path class="st0" d="M97.9,71c0-1.3,0.5-2.5,1.2-3.3s1.8-1.4,3-1.4s2.2,0.5,3,1.4c0.7,0.8,1.1,2,1.1,3.3s-0.5,2.5-1.2,3.3
						s-1.8,1.4-3,1.4s-2.2-0.5-3-1.4C98.2,73.3,97.9,72.2,97.9,71z M99.2,70.9c0,0.9,0.2,1.8,0.7,2.5c0.5,0.6,1.2,1.1,2.1,1.1
						s1.5-0.4,2-0.9c0.5-0.6,0.7-1.4,0.7-2.4c0-0.9-0.2-1.8-0.7-2.5c-0.5-0.6-1.2-1.1-2.1-1.1s-1.5,0.4-2,0.9
						C99.4,69.1,99.2,69.9,99.2,70.9z"/>
					<path class="st0" d="M109.1,66.4l0.2,0.8c0.4-0.2,0.8-0.5,1.3-0.7s0.9-0.4,1.4-0.4c0.8,0,1.7,0.2,2.2,0.7
						c0.6,0.6,0.9,1.4,0.9,2.6v5.8h-1.3v-5.7c0-0.8-0.2-1.4-0.6-1.8s-0.8-0.5-1.4-0.5c-0.5,0-0.8,0.1-1.3,0.2
						c-0.4,0.1-0.8,0.4-1.2,0.6v7.1H108v-8.7H109.1z"/>
					<path class="st0" d="M123.9,75.4l-0.2-0.8c-0.7,0.6-1.5,0.9-2.5,0.9c-1.2,0-2.1-0.6-2.8-1.4s-1.1-2-1.1-3.4
						c0-1.3,0.4-2.4,1.1-3.2c0.7-0.8,1.9-1.3,3.4-1.3c0.6,0,1.2,0.1,1.7,0.2V63l1.3-0.1h0.1v12.5H123.9z M123.4,67.8
						c-0.6-0.2-1.2-0.4-1.8-0.4c-0.9,0-1.7,0.2-2.2,0.8c-0.6,0.6-0.8,1.4-0.8,2.6c0,0.9,0.2,1.8,0.6,2.4c0.5,0.6,1.1,1.1,2.1,1.1
						c0.9,0,1.7-0.4,2.1-0.9L123.4,67.8L123.4,67.8z"/>
					<path class="st0" d="M133.7,71.2h-5.6c0.1,1.9,1.3,3.1,3,3.1c0.8,0,1.7-0.2,2.5-0.6l0,0v1.2c-0.9,0.5-1.8,0.6-2.6,0.6
						c-2.6,0-4.1-1.9-4.1-4.7c0-2.6,1.2-4.6,3.9-4.6c2.2,0,3.1,1.8,3.1,3.8v1.3h-0.2V71.2z M132.4,70c0-1.4-0.4-2.6-1.8-2.6
						s-2.2,1.1-2.5,2.6H132.4z"/>
					<path class="st0" d="M136.7,66.4l0.4,1.1c0.7-0.8,1.4-1.2,2.2-1.2c0.2,0,0.5,0,0.7,0.1c0.2,0,0.5,0.1,0.7,0.2l-0.5,1.2
						c-0.4-0.1-0.8-0.2-1.2-0.2c-0.8,0-1.4,0.5-1.9,1.2v6.7h-1.3v-9.1H136.7z"/>
					<path class="st0" d="M151.4,75.4h-1.7l-2-6.9l-2,6.9H144l-2.8-9h1.3l2.4,7.5l2.2-7.5h1.2l2.2,7.5l2.4-7.5h1.3L151.4,75.4z"/>
					<path class="st0" d="M155.9,64c0-0.5,0.4-0.9,0.9-0.9s0.9,0.4,0.9,0.9s-0.5,0.9-0.9,0.9C156.4,64.8,155.9,64.5,155.9,64z
						 M157.5,66.4v9h-1.3v-9H157.5z"/>
					<path class="st0" d="M162.2,66.4V76c0,1.3-0.4,2.1-0.8,2.7c-0.5,0.6-1.2,0.8-2,0.8c-0.7,0-1.4-0.2-2.2-0.6l0.4-1.2
						c0.6,0.4,1.2,0.6,1.7,0.6s0.8-0.1,1.2-0.5c0.2-0.4,0.5-0.9,0.5-1.8v-9.6H162.2z M160.6,64c0-0.2,0.1-0.5,0.2-0.7
						c0.1-0.1,0.4-0.2,0.6-0.2s0.5,0.1,0.7,0.2c0.1,0.1,0.2,0.4,0.2,0.7c0,0.2-0.1,0.5-0.2,0.6c-0.1,0.1-0.4,0.2-0.7,0.2
						c-0.2,0-0.5-0.1-0.6-0.2S160.6,64.2,160.6,64z"/>
					<path class="st0" d="M164.5,73.8c0.6,0.2,1.4,0.5,2.1,0.5c0.9,0,2.2-0.5,2.2-1.4c0-0.5-0.2-0.8-0.7-1.1
						c-0.6-0.4-1.4-0.6-2.2-1.1c-0.9-0.5-1.4-1.2-1.4-2.1c0-1.8,1.4-2.4,3.1-2.4c0.7,0,1.3,0.1,1.8,0.2v1.2l0,0
						c-0.5-0.1-1.3-0.2-2-0.2c-0.8,0-1.5,0.2-1.5,1.1c0,0.5,0.2,0.8,0.7,1.1c0.6,0.4,1.7,0.7,2.5,1.2c0.9,0.5,1.2,1.1,1.2,2
						s-0.5,1.7-1.2,2.1c-0.7,0.5-1.7,0.7-2.5,0.7c-0.7,0-1.4-0.1-2-0.4L164.5,73.8L164.5,73.8z"/>
					<path class="st0" d="M184.7,69.1l1.2,0.5c-0.2,1.4-0.6,2.6-1.2,3.4l1.7,1.7l-0.9,0.9l-1.5-1.4c-0.9,0.9-2,1.4-3.4,1.4
						c-1.1,0-2-0.4-2.6-0.8c-0.6-0.5-1.1-1.4-1.1-2.5c0-1.3,0.6-2.2,2-3.1c-0.6-0.6-1.1-1.4-1.1-2.5c0-0.8,0.2-1.5,0.7-2
						s1.2-0.8,2-0.8c0.7,0,1.4,0.2,1.9,0.6c0.5,0.5,0.8,1.1,0.8,1.9s-0.4,1.4-0.8,1.9c-0.5,0.5-1.1,0.8-1.7,1.1l2.8,2.8
						C184.2,71.1,184.4,70,184.7,69.1L184.7,69.1z M179.7,69.9c-0.4,0.2-0.8,0.6-1.1,0.9c-0.2,0.4-0.5,0.8-0.5,1.4s0.2,1.2,0.6,1.5
						c0.4,0.4,0.9,0.6,1.7,0.6c1.1,0,1.9-0.5,2.5-1.2L179.7,69.9z M179.1,66.5c0,0.5,0.1,0.8,0.2,1.2c0.1,0.4,0.4,0.6,0.6,0.8
						c0,0,0,0,0.1,0c0,0,0,0,0.1,0c0.4-0.1,0.8-0.4,1.2-0.7c0.4-0.4,0.6-0.7,0.6-1.4c0-0.5-0.1-0.8-0.4-0.9
						c-0.2-0.2-0.6-0.2-0.9-0.2C179.6,65.1,179.1,65.6,179.1,66.5z"/>
					<path class="st0" d="M197.3,75.4h-1.8l-3.1-9h1.4l2.6,7.6l2.6-7.6h1.4L197.3,75.4z"/>
					<path class="st0" d="M201.4,71c0-1.3,0.5-2.5,1.2-3.3s1.8-1.4,3-1.4s2.2,0.5,3,1.4c0.7,0.8,1.1,2,1.1,3.3s-0.5,2.5-1.2,3.3
						s-1.8,1.4-3,1.4s-2.2-0.5-3-1.4C201.7,73.3,201.4,72.2,201.4,71z M202.7,70.9c0,0.9,0.2,1.8,0.7,2.5c0.5,0.6,1.2,1.1,2.1,1.1
						c0.9,0,1.5-0.4,2-0.9c0.5-0.6,0.7-1.4,0.7-2.4c0-0.9-0.2-1.8-0.7-2.5c-0.5-0.6-1.2-1.1-2.1-1.1s-1.5,0.4-2,0.9
						C202.9,69.1,202.7,69.9,202.7,70.9z"/>
					<path class="st0" d="M211.9,66.4l0.4,1.1c0.7-0.8,1.4-1.2,2.2-1.2c0.2,0,0.5,0,0.7,0.1c0.2,0,0.5,0.1,0.7,0.2l-0.5,1.2
						c-0.4-0.1-0.8-0.2-1.2-0.2c-0.8,0-1.4,0.5-1.9,1.2v6.7H211v-9.1H211.9z"/>
					<path class="st0" d="M222.7,75.4v-5.7c0-0.8-0.1-1.4-0.5-1.8c-0.2-0.4-0.7-0.5-1.2-0.5c-0.7,0-1.4,0.4-2.1,0.8v7.2h-1.3v-9h0.8
						l0.4,0.8c0.6-0.4,0.9-0.6,1.4-0.7c0.4-0.1,0.8-0.2,1.2-0.2c0.7,0,1.5,0.2,2,0.9c0.4-0.2,0.8-0.5,1.3-0.7s0.9-0.4,1.3-0.4
						c0.8,0,1.7,0.2,2.2,0.7c0.6,0.6,0.9,1.4,0.9,2.6v5.8h-1.3v-5.7c0-0.8-0.2-1.4-0.6-1.8c-0.4-0.4-0.8-0.5-1.4-0.5
						c-0.7,0-1.4,0.4-2,0.7c0.1,0.5,0.2,0.9,0.2,1.5v6C224,75.4,222.7,75.4,222.7,75.4z"/>
					<path class="st0" d="M231.8,64c0-0.5,0.4-0.9,0.9-0.9s0.9,0.4,0.9,0.9s-0.5,0.9-0.9,0.9C232.3,64.8,231.8,64.5,231.8,64z
						 M233.5,66.4v9h-1.3v-9H233.5z"/>
					<path class="st0" d="M237.4,66.4l0.2,0.8c0.4-0.2,0.8-0.5,1.3-0.7s0.9-0.4,1.4-0.4c0.8,0,1.7,0.2,2.2,0.7
						c0.6,0.6,0.9,1.4,0.9,2.6v5.8h-1.3v-5.7c0-0.8-0.2-1.4-0.6-1.8s-0.8-0.5-1.4-0.5c-0.5,0-0.8,0.1-1.3,0.2
						c-0.4,0.1-0.8,0.4-1.2,0.6v7.1h-1.3v-8.7H237.4z"/>
					<path class="st0" d="M249.7,73.5c1.2,0,2.1,0.2,2.7,0.7s0.8,1.1,0.8,1.8c0,0.9-0.6,1.9-1.4,2.5s-2,1.1-3.2,1.1
						c-1.1,0-1.9-0.4-2.5-0.8s-0.9-1.2-0.9-2c0-0.7,0.4-1.5,1.1-2.2c-0.2-0.1-0.5-0.4-0.6-0.6s-0.2-0.6-0.2-0.8
						c0-0.5,0.2-1.1,0.6-1.5c-0.2-0.2-0.5-0.6-0.6-0.9c-0.1-0.4-0.2-0.8-0.2-1.2c0-0.8,0.4-1.7,0.9-2.1c0.6-0.6,1.4-0.8,2.4-0.8
						c0.7,0,1.3,0.1,1.8,0.5c0.4-0.2,0.8-0.5,1.2-0.7c0.4-0.1,0.8-0.2,1.1-0.2l0.4,1.2c-0.5,0.1-1.1,0.2-1.7,0.6
						c0.4,0.5,0.5,1.1,0.5,1.7c0,0.8-0.4,1.7-0.9,2.2c-0.6,0.6-1.4,0.9-2.4,0.9c-0.6,0-1.2-0.1-1.7-0.4c-0.2,0.2-0.4,0.5-0.4,0.7
						c0,0.5,0.4,0.8,1.1,0.8h2.3v-0.5H249.7z M247.5,74.6c-0.5,0.6-0.8,1.3-0.8,1.9c0,0.5,0.1,0.9,0.5,1.3s0.9,0.5,1.7,0.5
						c0.9,0,1.7-0.2,2.2-0.7c0.6-0.5,0.8-0.9,0.8-1.5c0-0.7-0.4-1.1-1.1-1.2c-0.6-0.2-1.5-0.2-2.5-0.2h-0.8V74.6z M249,67.4
						c-0.7,0-1.2,0.2-1.5,0.6s-0.5,0.8-0.5,1.3s0.2,0.9,0.5,1.3c0.4,0.4,0.8,0.6,1.5,0.6s1.2-0.2,1.5-0.6s0.5-0.8,0.5-1.3
						s-0.1-0.9-0.5-1.3C250.2,67.7,249.6,67.4,249,67.4z"/>
				</g>
				<g>
					<path class="st0" d="M43.2,55.5c-2.4-1.9-3.6,0-5.1-0.1c-1.3-0.1-2.5-2.1-3.4-1.7c-1.9,0.9,0.7,4.4,1.9,5.1
						c1.1,0.6,2.4,1.2,2.6,1.3c1.5,0.7,2.1,1.8,2.4,3.4c0,0.4,0,1.3-0.1,1.7c-0.7,3-5.9,5.7-8.9,3.6c-1.4-0.9-2.7-2.2-3.1-4.4
						c-0.8-3.9-3.6-6.7-4.5-10.5c-0.6-2.2-0.9-4.7-1.5-7.1c-0.6-2.4-1.2-4.7-1.8-7c-0.5-2-1.4-5.1-2.1-6.9c-2.8-7.5-4.1-6.9-4.1-6.9
						s1.1,2,4.7,20.2c0.1,0.7,1.5,8.8,2.5,11.4c0.4,0.9,0.9,3,1.4,3.8c1.2,2.6,4.4,6.5,4.5,10.1c0.1,2,0.4,3.8,0.4,5.3
						c0,0.5,0.2,2.2,0.5,3.1c0.8,2.1,7,9.1,13.6,9.1v-5.3c-6.5,0-12.8-3.7-12.9-4c-0.1-0.1,0.4-2.7,0.8-3.8c0.8-2.1,2.5-4.1,5.3-4.4
						c3.2-0.2,5.1,0.7,6.7,0.7L43.2,55.5z"/>
					<path class="st0" d="M14.7,36.2c-0.2,4-6.4,9.4-8.3,12.9c-0.9,1.7-2.1,4.6-2.4,6.4c-0.8,4.7,0.2,7.7,1.4,10.4
						c2,4.9-0.2,6.6,1.3,5.7c2-1.7,1.7-5.3,1.5-7.7c-0.1-1.9-0.2-4,0-6.3c0.6-4.3,3.1-8.8,5.3-12C16.2,41.8,15.2,37.9,14.7,36.2"/>
					<path class="st0" d="M15.9,47.4c0,0,0.7,3.2-2.1,11.2c-7.2,21.2,6.6,23.1,10.5,28.1c0,0,1.5-2.1-4.7-9c-2.2-2.5-4.4-8.1-2.6-16
						C19.7,50.3,15.9,47.4,15.9,47.4"/>
					<path class="st0" d="M2.2,33.6c-0.4-1.3-0.5-2.4-0.4-3.3c0.4-5,4.9-7,5.9-7.7c0,0,2-1.4,2.2-2.8c0,0,2.1,5.2-2.7,8.2
						C5,29.5,3.4,31.3,2.2,33.6"/>
					<path class="st0" d="M13.5,28.8c0.2,0.5,2.1,3.2-5.6,9.6c-7.5,6.3-5.1,10.8-5.1,10.8S-5.4,44.7,4,36.8c9.4-7.8,7.5-9.5,7.5-9.5
						S12.8,27.3,13.5,28.8"/>
					<path class="st0" d="M23.5,31.2c1.3,0.1,2.1,4.3,5.2,5.2c2.2,0.7,4.6,0.4,5.2,1.7c-1.1,0.6-0.2,2.4,0.8,2
						C35.6,37.7,36,28.5,23.5,31.2z M27.6,33.1c0.1-0.2,0.2,0,0.6-0.2c0.4-0.4,0.7-0.9,1.3-1.1c0.5-0.1,0.9-0.1,1.4,0.1
						c0.2,0.1,0.1,0.7-0.1,0.9c-0.4,0.4-1.7-0.2-1.7,0.7c0,1.5,2,0,3.1,0C32.7,37.1,26.8,36,27.6,33.1z"/>
				</g>
			</g>
		</g>
	</g>
	<polygon class="st0" points="81.3,109.6 77.1,109.6 40.5,0.4 44.8,0.4 	"/>
</g>
</svg>
